<svg width="239" height="48" viewBox="0 0 239 48" fill="none" xmlns="http://www.w3.org/2000/svg">
<path d="M24.3469 10.5366C23.9192 10.5366 23.5283 10.4535 23.1744 10.2873C22.8204 10.118 22.5388 9.87488 22.3295 9.55788C22.1203 9.23781 22.0156 8.85002 22.0156 8.39453C22.0156 8.04368 22.0818 7.74822 22.2141 7.50817C22.3465 7.26811 22.5342 7.07114 22.7773 6.91726C23.0205 6.76338 23.3082 6.64181 23.6406 6.55256C23.973 6.4633 24.3393 6.39406 24.7393 6.34482C25.1364 6.29557 25.4718 6.25249 25.7457 6.21555C26.0227 6.17862 26.2335 6.12015 26.3782 6.04013C26.5228 5.96011 26.5952 5.83085 26.5952 5.65234V5.48615C26.5952 5.00296 26.4505 4.62287 26.1612 4.34588C25.875 4.06581 25.4626 3.92578 24.924 3.92578C24.4131 3.92578 23.9961 4.03812 23.6729 4.26278C23.3529 4.48745 23.1282 4.75213 22.9989 5.05682L22.2188 4.77521C22.3788 4.38743 22.6004 4.07812 22.8835 3.8473C23.1667 3.6134 23.4837 3.44567 23.8345 3.34411C24.1854 3.23946 24.5408 3.18714 24.9009 3.18714C25.1718 3.18714 25.4534 3.22254 25.7457 3.29332C26.0412 3.36411 26.3151 3.48722 26.5675 3.66264C26.8198 3.83499 27.0245 4.07659 27.1815 4.38743C27.3384 4.69519 27.4169 5.08606 27.4169 5.56001V10.375H26.5952V9.2532H26.5444C26.4459 9.46248 26.2997 9.6656 26.1058 9.86257C25.9119 10.0595 25.6688 10.2211 25.3764 10.3473C25.084 10.4735 24.7409 10.5366 24.3469 10.5366ZM24.4577 9.78409C24.8948 9.78409 25.2733 9.68715 25.5934 9.49325C25.9135 9.29936 26.1597 9.04238 26.332 8.7223C26.5075 8.39915 26.5952 8.04368 26.5952 7.65589V6.63104C26.5336 6.68951 26.4305 6.74183 26.2859 6.788C26.1443 6.83416 25.9796 6.87571 25.7919 6.91264C25.6072 6.9465 25.4226 6.97573 25.2379 7.00036C25.0533 7.02498 24.8871 7.04652 24.7393 7.06499C24.3393 7.11423 23.9976 7.19117 23.7145 7.29581C23.4313 7.40045 23.2144 7.5451 23.0636 7.72976C22.9128 7.91134 22.8374 8.14524 22.8374 8.43146C22.8374 8.86233 22.9912 9.19626 23.299 9.43324C23.6068 9.66714 23.993 9.78409 24.4577 9.78409Z" fill="#18443E"/>
<path d="M29.6028 13.0341V3.28409H30.4015V4.63672H30.4984C30.5969 4.42436 30.7323 4.20739 30.9047 3.9858C31.077 3.76113 31.3047 3.57185 31.5879 3.41797C31.8741 3.26409 32.2342 3.18714 32.6681 3.18714C33.2529 3.18714 33.7638 3.34103 34.2008 3.64879C34.6409 3.95348 34.9825 4.38127 35.2257 4.93217C35.4719 5.47999 35.595 6.11861 35.595 6.84801C35.595 7.58049 35.4719 8.22218 35.2257 8.77308C34.9825 9.32398 34.6409 9.75331 34.2008 10.0611C33.7638 10.3688 33.256 10.5227 32.6774 10.5227C32.2496 10.5227 31.891 10.4458 31.6017 10.2919C31.3155 10.138 31.0832 9.94874 30.9047 9.72408C30.7292 9.49633 30.5938 9.27474 30.4984 9.0593H30.4245V13.0341H29.6028ZM30.4153 6.83416C30.4153 7.4066 30.4999 7.91442 30.6692 8.3576C30.8416 8.7977 31.0878 9.14394 31.4078 9.39631C31.731 9.6456 32.1219 9.77024 32.5804 9.77024C33.0513 9.77024 33.4483 9.64098 33.7715 9.38246C34.0977 9.12086 34.3455 8.76847 34.5147 8.32528C34.6871 7.8821 34.7733 7.38506 34.7733 6.83416C34.7733 6.28942 34.6886 5.79853 34.5194 5.36151C34.3532 4.92448 34.1069 4.57824 33.7807 4.3228C33.4545 4.06428 33.0544 3.93501 32.5804 3.93501C32.1188 3.93501 31.7264 4.05966 31.4032 4.30895C31.0801 4.55516 30.8339 4.89678 30.6646 5.33381C30.4984 5.76776 30.4153 6.26787 30.4153 6.83416Z" fill="#18443E"/>
<path d="M37.6135 3.28409L39.4417 6.30788L41.2698 3.28409H42.2254L39.9449 6.82955L42.2254 10.375H41.2698L39.4417 7.44815L37.6135 10.375H36.6626L38.9154 6.82955L36.6626 3.28409H37.6135Z" fill="#18443E"/>
<path d="M44.7702 9.20703L48.5142 3.28409H49.4975V10.375H48.6758V4.45206L44.9457 10.375H43.9485V3.28409H44.7702V9.20703Z" fill="#18443E"/>
<path d="M50.6747 4.05966V3.28409H56.2145V4.05966H53.8693V10.375H53.0476V4.05966H50.6747Z" fill="#18443E"/>
<path d="M60.4501 10.5227C59.7884 10.5227 59.216 10.3688 58.7328 10.0611C58.2496 9.75024 57.8757 9.3209 57.611 8.77308C57.3494 8.22218 57.2186 7.58819 57.2186 6.87109C57.2186 6.15708 57.3494 5.52308 57.611 4.9691C57.8757 4.41205 58.2404 3.97656 58.7051 3.66264C59.1729 3.34564 59.713 3.18714 60.3255 3.18714C60.7102 3.18714 61.081 3.25793 61.438 3.3995C61.795 3.538 62.1151 3.75189 62.3983 4.04119C62.6845 4.32741 62.9107 4.68904 63.0769 5.12607C63.2431 5.56001 63.3262 6.07398 63.3262 6.66797V7.07422H57.7864V6.34943H62.486C62.486 5.89394 62.3936 5.48461 62.209 5.12145C62.0274 4.75521 61.7735 4.46591 61.4473 4.25355C61.1241 4.04119 60.7502 3.93501 60.3255 3.93501C59.8761 3.93501 59.4806 4.05504 59.139 4.2951C58.7974 4.53516 58.5297 4.85215 58.3358 5.24609C58.1449 5.64003 58.048 6.0709 58.0449 6.53871V6.97266C58.0449 7.53587 58.1419 8.02829 58.3358 8.44993C58.5327 8.86849 58.8113 9.19318 59.1713 9.42401C59.5314 9.65483 59.9577 9.77024 60.4501 9.77024C60.7856 9.77024 61.0795 9.71792 61.3319 9.61328C61.5873 9.50864 61.8012 9.36861 61.9735 9.19318C62.149 9.01468 62.2813 8.81925 62.3706 8.60689L63.1507 8.8608C63.043 9.15933 62.8661 9.43478 62.6199 9.68715C62.3767 9.93951 62.072 10.1426 61.7058 10.2965C61.3426 10.4473 60.9241 10.5227 60.4501 10.5227Z" fill="#18443E"/>
<path d="M65.137 10.375V3.28409H65.9587V6.47408H66.7297L69.3657 3.28409H70.4275L67.5837 6.69567L70.4921 10.375H69.4303L66.9836 7.24964H65.9587V10.375H65.137Z" fill="#18443E"/>
<path d="M71.4062 4.05966V3.28409H76.9459V4.05966H74.6008V10.375H73.779V4.05966H71.4062Z" fill="#18443E"/>
<path d="M79.2553 13.0341C79.0922 13.0341 78.9399 13.0187 78.7983 12.9879C78.6567 12.9571 78.5444 12.9233 78.4613 12.8864L78.6829 12.1616C78.963 12.2478 79.2122 12.2785 79.4308 12.2539C79.6493 12.2324 79.8432 12.1339 80.0124 11.9585C80.1817 11.7861 80.3325 11.5214 80.4648 11.1644L80.7234 10.4442L78.1151 3.28409H79.006L81.1112 9.29013H81.1758L83.2809 3.28409H84.1719L81.1712 11.4968C81.045 11.8384 80.8896 12.1231 80.7049 12.3509C80.5202 12.5817 80.3063 12.7525 80.0632 12.8633C79.8232 12.9772 79.5539 13.0341 79.2553 13.0341Z" fill="#18443E"/>
<path d="M85.7796 13.0341V3.28409H86.5782V4.63672H86.6752C86.7737 4.42436 86.9091 4.20739 87.0814 3.9858C87.2538 3.76113 87.4815 3.57185 87.7646 3.41797C88.0509 3.26409 88.411 3.18714 88.8449 3.18714C89.4297 3.18714 89.9406 3.34103 90.3776 3.64879C90.8177 3.95348 91.1593 4.38127 91.4024 4.93217C91.6487 5.47999 91.7718 6.11861 91.7718 6.84801C91.7718 7.58049 91.6487 8.22218 91.4024 8.77308C91.1593 9.32398 90.8177 9.75331 90.3776 10.0611C89.9406 10.3688 89.4327 10.5227 88.8541 10.5227C88.4263 10.5227 88.0678 10.4458 87.7785 10.2919C87.4923 10.138 87.2599 9.94874 87.0814 9.72408C86.906 9.49633 86.7706 9.27474 86.6752 9.0593H86.6013V13.0341H85.7796ZM86.5921 6.83416C86.5921 7.4066 86.6767 7.91442 86.846 8.3576C87.0183 8.7977 87.2645 9.14394 87.5846 9.39631C87.9078 9.6456 88.2986 9.77024 88.7572 9.77024C89.2281 9.77024 89.6251 9.64098 89.9482 9.38246C90.2745 9.12086 90.5222 8.76847 90.6915 8.32528C90.8638 7.8821 90.95 7.38506 90.95 6.83416C90.95 6.28942 90.8654 5.79853 90.6961 5.36151C90.5299 4.92448 90.2837 4.57824 89.9575 4.3228C89.6312 4.06428 89.2312 3.93501 88.7572 3.93501C88.2955 3.93501 87.9031 4.05966 87.58 4.30895C87.2568 4.55516 87.0106 4.89678 86.8414 5.33381C86.6752 5.76776 86.5921 6.26787 86.5921 6.83416Z" fill="#18443E"/>
<path d="M98.3618 6.44638V7.22195H94.1931V6.44638H98.3618ZM94.3962 3.28409V10.375H93.5745V3.28409H94.3962ZM98.9665 3.28409V10.375H98.1448V3.28409H98.9665Z" fill="#18443E"/>
<path d="M103.91 10.5227C103.297 10.5227 102.756 10.3673 102.285 10.0565C101.817 9.74562 101.451 9.31629 101.186 8.76847C100.921 8.21757 100.789 7.58203 100.789 6.86186C100.789 6.13553 100.921 5.49692 101.186 4.94602C101.451 4.39205 101.817 3.96117 102.285 3.65341C102.756 3.34257 103.297 3.18714 103.91 3.18714C104.522 3.18714 105.062 3.34257 105.53 3.65341C105.998 3.96425 106.364 4.39512 106.629 4.94602C106.896 5.49692 107.03 6.13553 107.03 6.86186C107.03 7.58203 106.898 8.21757 106.633 8.76847C106.369 9.31629 106.001 9.74562 105.53 10.0565C105.062 10.3673 104.522 10.5227 103.91 10.5227ZM103.91 9.77024C104.402 9.77024 104.819 9.6379 105.161 9.37322C105.502 9.10855 105.761 8.75616 105.936 8.31605C106.115 7.87595 106.204 7.39122 106.204 6.86186C106.204 6.3325 106.115 5.84624 105.936 5.40305C105.761 4.95987 105.502 4.6044 105.161 4.33665C104.819 4.06889 104.402 3.93501 103.91 3.93501C103.42 3.93501 103.003 4.06889 102.659 4.33665C102.317 4.6044 102.057 4.95987 101.878 5.40305C101.703 5.84624 101.615 6.3325 101.615 6.86186C101.615 7.39122 101.703 7.87595 101.878 8.31605C102.057 8.75616 102.317 9.10855 102.659 9.37322C103 9.6379 103.417 9.77024 103.91 9.77024Z" fill="#18443E"/>
<path d="M112.661 5.93395V6.70952H108.728V5.93395H112.661Z" fill="#18443E"/>
<path d="M117.495 10.5227C116.861 10.5227 116.308 10.3642 115.837 10.0472C115.37 9.73023 115.006 9.29628 114.748 8.74538C114.489 8.19448 114.36 7.56664 114.36 6.86186C114.36 6.15092 114.491 5.51847 114.753 4.96449C115.017 4.41051 115.383 3.97656 115.851 3.66264C116.319 3.34564 116.862 3.18714 117.481 3.18714C117.955 3.18714 118.384 3.27947 118.769 3.46413C119.154 3.64571 119.471 3.9027 119.72 4.23509C119.972 4.56439 120.131 4.9491 120.195 5.3892H119.364C119.278 4.98911 119.071 4.64749 118.741 4.36435C118.415 4.07812 118 3.93501 117.495 3.93501C117.042 3.93501 116.642 4.05812 116.294 4.30433C115.947 4.54747 115.674 4.88755 115.477 5.32457C115.283 5.75852 115.187 6.26172 115.187 6.83416C115.187 7.40968 115.282 7.91903 115.473 8.36222C115.664 8.80232 115.931 9.14702 116.276 9.39631C116.624 9.6456 117.03 9.77024 117.495 9.77024C117.809 9.77024 118.095 9.71177 118.353 9.59482C118.615 9.47479 118.834 9.30552 119.009 9.087C119.187 8.86849 119.308 8.60843 119.369 8.30682H120.2C120.138 8.73461 119.986 9.11624 119.743 9.4517C119.503 9.78409 119.191 10.0457 118.806 10.2365C118.424 10.4273 117.987 10.5227 117.495 10.5227Z" fill="#18443E"/>
<path d="M121.375 4.05966V3.28409H126.915V4.05966H124.57V10.375H123.748V4.05966H121.375Z" fill="#18443E"/>
<path d="M128.652 13.0341V3.28409H129.45V4.63672H129.547C129.646 4.42436 129.781 4.20739 129.953 3.9858C130.126 3.76113 130.354 3.57185 130.637 3.41797C130.923 3.26409 131.283 3.18714 131.717 3.18714C132.302 3.18714 132.813 3.34103 133.25 3.64879C133.69 3.95348 134.031 4.38127 134.275 4.93217C134.521 5.47999 134.644 6.11861 134.644 6.84801C134.644 7.58049 134.521 8.22218 134.275 8.77308C134.031 9.32398 133.69 9.75331 133.25 10.0611C132.813 10.3688 132.305 10.5227 131.726 10.5227C131.298 10.5227 130.94 10.4458 130.651 10.2919C130.364 10.138 130.132 9.94874 129.953 9.72408C129.778 9.49633 129.643 9.27474 129.547 9.0593H129.473V13.0341H128.652ZM129.464 6.83416C129.464 7.4066 129.549 7.91442 129.718 8.3576C129.89 8.7977 130.137 9.14394 130.457 9.39631C130.78 9.6456 131.171 9.77024 131.629 9.77024C132.1 9.77024 132.497 9.64098 132.82 9.38246C133.147 9.12086 133.394 8.76847 133.564 8.32528C133.736 7.8821 133.822 7.38506 133.822 6.83416C133.822 6.28942 133.737 5.79853 133.568 5.36151C133.402 4.92448 133.156 4.57824 132.83 4.3228C132.503 4.06428 132.103 3.93501 131.629 3.93501C131.168 3.93501 130.775 4.05966 130.452 4.30895C130.129 4.55516 129.883 4.89678 129.713 5.33381C129.547 5.76776 129.464 6.26787 129.464 6.83416Z" fill="#18443E"/>
<path d="M139.203 10.5227C138.59 10.5227 138.048 10.3673 137.578 10.0565C137.11 9.74562 136.744 9.31629 136.479 8.76847C136.214 8.21757 136.082 7.58203 136.082 6.86186C136.082 6.13553 136.214 5.49692 136.479 4.94602C136.744 4.39205 137.11 3.96117 137.578 3.65341C138.048 3.34257 138.59 3.18714 139.203 3.18714C139.815 3.18714 140.355 3.34257 140.823 3.65341C141.291 3.96425 141.657 4.39512 141.922 4.94602C142.189 5.49692 142.323 6.13553 142.323 6.86186C142.323 7.58203 142.191 8.21757 141.926 8.76847C141.662 9.31629 141.294 9.74562 140.823 10.0565C140.355 10.3673 139.815 10.5227 139.203 10.5227ZM139.203 9.77024C139.695 9.77024 140.112 9.6379 140.454 9.37322C140.795 9.10855 141.054 8.75616 141.229 8.31605C141.408 7.87595 141.497 7.39122 141.497 6.86186C141.497 6.3325 141.408 5.84624 141.229 5.40305C141.054 4.95987 140.795 4.6044 140.454 4.33665C140.112 4.06889 139.695 3.93501 139.203 3.93501C138.713 3.93501 138.296 4.06889 137.952 4.33665C137.61 4.6044 137.35 4.95987 137.171 5.40305C136.996 5.84624 136.908 6.3325 136.908 6.86186C136.908 7.39122 136.996 7.87595 137.171 8.31605C137.35 8.75616 137.61 9.10855 137.952 9.37322C138.293 9.6379 138.71 9.77024 139.203 9.77024Z" fill="#18443E"/>
<path d="M144.949 9.20703L148.693 3.28409H149.676V10.375H148.854V4.45206L145.124 10.375H144.127V3.28409H144.949V9.20703Z" fill="#18443E"/>
<path d="M150.853 4.05966V3.28409H156.393V4.05966H154.048V10.375H153.226V4.05966H150.853Z" fill="#18443E"/>
<path d="M160.629 10.5227C159.967 10.5227 159.395 10.3688 158.911 10.0611C158.428 9.75024 158.054 9.3209 157.79 8.77308C157.528 8.22218 157.397 7.58819 157.397 6.87109C157.397 6.15708 157.528 5.52308 157.79 4.9691C158.054 4.41205 158.419 3.97656 158.884 3.66264C159.352 3.34564 159.892 3.18714 160.504 3.18714C160.889 3.18714 161.26 3.25793 161.617 3.3995C161.974 3.538 162.294 3.75189 162.577 4.04119C162.863 4.32741 163.089 4.68904 163.256 5.12607C163.422 5.56001 163.505 6.07398 163.505 6.66797V7.07422H157.965V6.34943H162.665C162.665 5.89394 162.572 5.48461 162.388 5.12145C162.206 4.75521 161.952 4.46591 161.626 4.25355C161.303 4.04119 160.929 3.93501 160.504 3.93501C160.055 3.93501 159.659 4.05504 159.318 4.2951C158.976 4.53516 158.708 4.85215 158.514 5.24609C158.324 5.64003 158.227 6.0709 158.224 6.53871V6.97266C158.224 7.53587 158.321 8.02829 158.514 8.44993C158.711 8.86849 158.99 9.19318 159.35 9.42401C159.71 9.65483 160.136 9.77024 160.629 9.77024C160.964 9.77024 161.258 9.71792 161.511 9.61328C161.766 9.50864 161.98 9.36861 162.152 9.19318C162.328 9.01468 162.46 8.81925 162.549 8.60689L163.329 8.8608C163.222 9.15933 163.045 9.43478 162.799 9.68715C162.555 9.93951 162.251 10.1426 161.885 10.2965C161.521 10.4473 161.103 10.5227 160.629 10.5227Z" fill="#18443E"/>
<path d="M164.619 10.375V9.59943H164.84C165.093 9.59943 165.296 9.55327 165.45 9.46094C165.607 9.36553 165.728 9.20549 165.814 8.98082C165.9 8.75616 165.965 8.44993 166.008 8.06214C166.051 7.67436 166.085 7.18809 166.11 6.60334L166.262 3.28409H170.768V10.375H169.941V4.05966H167.042L166.908 6.88033C166.881 7.45585 166.835 7.96212 166.77 8.39915C166.708 8.83617 166.607 9.20088 166.465 9.49325C166.327 9.78563 166.133 10.0057 165.884 10.1534C165.637 10.3011 165.314 10.375 164.914 10.375H164.619Z" fill="#18443E"/>
<path d="M173.629 6.02166H175.702C176.499 6.02166 177.114 6.21555 177.548 6.60334C177.982 6.99112 178.199 7.51586 178.199 8.17756C178.199 8.61766 178.102 9.00237 177.908 9.33168C177.714 9.66098 177.431 9.91797 177.059 10.1026C176.686 10.2842 176.234 10.375 175.702 10.375H172.946V3.28409H173.767V9.59943H175.702C176.203 9.59943 176.608 9.4794 176.916 9.23935C177.224 8.99929 177.377 8.65767 177.377 8.21449C177.377 7.76207 177.224 7.41276 176.916 7.16655C176.608 6.92034 176.203 6.79723 175.702 6.79723H173.629V6.02166Z" fill="#18443E"/>
<path d="M184.791 6.44638V7.22195H180.623V6.44638H184.791ZM180.826 3.28409V10.375H180.004V3.28409H180.826ZM185.396 3.28409V10.375H184.574V3.28409H185.396Z" fill="#18443E"/>
<path d="M190.339 10.5227C189.727 10.5227 189.185 10.3673 188.714 10.0565C188.247 9.74562 187.88 9.31629 187.616 8.76847C187.351 8.21757 187.219 7.58203 187.219 6.86186C187.219 6.13553 187.351 5.49692 187.616 4.94602C187.88 4.39205 188.247 3.96117 188.714 3.65341C189.185 3.34257 189.727 3.18714 190.339 3.18714C190.952 3.18714 191.492 3.34257 191.96 3.65341C192.428 3.96425 192.794 4.39512 193.058 4.94602C193.326 5.49692 193.46 6.13553 193.46 6.86186C193.46 7.58203 193.328 8.21757 193.063 8.76847C192.798 9.31629 192.431 9.74562 191.96 10.0565C191.492 10.3673 190.952 10.5227 190.339 10.5227ZM190.339 9.77024C190.832 9.77024 191.249 9.6379 191.59 9.37322C191.932 9.10855 192.191 8.75616 192.366 8.31605C192.544 7.87595 192.634 7.39122 192.634 6.86186C192.634 6.3325 192.544 5.84624 192.366 5.40305C192.191 4.95987 191.932 4.6044 191.59 4.33665C191.249 4.06889 190.832 3.93501 190.339 3.93501C189.85 3.93501 189.433 4.06889 189.088 4.33665C188.747 4.6044 188.487 4.95987 188.308 5.40305C188.133 5.84624 188.045 6.3325 188.045 6.86186C188.045 7.39122 188.133 7.87595 188.308 8.31605C188.487 8.75616 188.747 9.10855 189.088 9.37322C189.43 9.6379 189.847 9.77024 190.339 9.77024Z" fill="#18443E"/>
<path d="M198.131 10.5227C197.469 10.5227 196.897 10.3688 196.413 10.0611C195.93 9.75024 195.556 9.3209 195.292 8.77308C195.03 8.22218 194.899 7.58819 194.899 6.87109C194.899 6.15708 195.03 5.52308 195.292 4.9691C195.556 4.41205 195.921 3.97656 196.386 3.66264C196.854 3.34564 197.394 3.18714 198.006 3.18714C198.391 3.18714 198.762 3.25793 199.119 3.3995C199.476 3.538 199.796 3.75189 200.079 4.04119C200.365 4.32741 200.591 4.68904 200.758 5.12607C200.924 5.56001 201.007 6.07398 201.007 6.66797V7.07422H195.467V6.34943H200.167C200.167 5.89394 200.074 5.48461 199.89 5.12145C199.708 4.75521 199.454 4.46591 199.128 4.25355C198.805 4.04119 198.431 3.93501 198.006 3.93501C197.557 3.93501 197.161 4.05504 196.82 4.2951C196.478 4.53516 196.21 4.85215 196.016 5.24609C195.826 5.64003 195.729 6.0709 195.726 6.53871V6.97266C195.726 7.53587 195.823 8.02829 196.016 8.44993C196.213 8.86849 196.492 9.19318 196.852 9.42401C197.212 9.65483 197.638 9.77024 198.131 9.77024C198.466 9.77024 198.76 9.71792 199.013 9.61328C199.268 9.50864 199.482 9.36861 199.654 9.19318C199.83 9.01468 199.962 8.81925 200.051 8.60689L200.831 8.8608C200.724 9.15933 200.547 9.43478 200.301 9.68715C200.057 9.93951 199.753 10.1426 199.386 10.2965C199.023 10.4473 198.605 10.5227 198.131 10.5227Z" fill="#18443E"/>
<path d="M211.58 0.625L212.009 1.14666C211.815 1.3344 211.583 1.46366 211.312 1.53445C211.044 1.60215 210.744 1.64062 210.412 1.64986C210.082 1.65909 209.727 1.67294 209.345 1.69141C208.798 1.7191 208.347 1.86222 207.993 2.12074C207.639 2.37618 207.37 2.7455 207.185 3.22869C207.003 3.70881 206.889 4.2951 206.843 4.98757H206.936C207.173 4.50438 207.506 4.1366 207.937 3.88423C208.371 3.63187 208.848 3.50568 209.368 3.50568C209.913 3.50568 210.403 3.63956 210.836 3.90732C211.273 4.17199 211.618 4.56132 211.871 5.07528C212.126 5.58617 212.254 6.2094 212.254 6.94496C212.254 7.67128 212.126 8.30374 211.871 8.84233C211.615 9.37784 211.258 9.79179 210.8 10.0842C210.341 10.3765 209.804 10.5227 209.188 10.5227C208.57 10.5227 208.028 10.3781 207.563 10.0888C207.102 9.7964 206.743 9.36707 206.488 8.80078C206.235 8.23142 206.109 7.53125 206.109 6.70028V5.95703C206.109 4.30433 206.371 3.06096 206.894 2.22692C207.417 1.39287 208.222 0.957386 209.308 0.920454C209.659 0.908144 209.978 0.905066 210.264 0.911221C210.55 0.914299 210.803 0.900449 211.021 0.869673C211.24 0.835819 211.426 0.754261 211.58 0.625ZM209.188 9.77024C209.647 9.77024 210.044 9.65483 210.379 9.42401C210.715 9.1901 210.973 8.8608 211.155 8.43608C211.34 8.01136 211.432 7.51432 211.432 6.94496C211.432 6.37867 211.338 5.89548 211.15 5.49538C210.966 5.09529 210.707 4.78906 210.375 4.5767C210.042 4.36435 209.653 4.25817 209.207 4.25817C208.856 4.25817 208.541 4.32588 208.26 4.46129C207.983 4.59363 207.747 4.78291 207.55 5.02912C207.353 5.27533 207.202 5.56463 207.097 5.89702C206.992 6.2294 206.939 6.5941 206.936 6.99112C206.936 7.84979 207.136 8.52841 207.536 9.02699C207.939 9.52249 208.49 9.77024 209.188 9.77024Z" fill="#18443E"/>
<path d="M217.104 6.51562V7.29119H213.638V6.51562H217.104ZM214.298 3.28409V10.375H213.471V3.28409H214.298ZM219.482 10.5227C218.87 10.5227 218.329 10.3673 217.862 10.0565C217.394 9.74562 217.026 9.31629 216.758 8.76847C216.494 8.21757 216.361 7.58203 216.361 6.86186C216.361 6.13553 216.494 5.49692 216.758 4.94602C217.026 4.39205 217.394 3.96117 217.862 3.65341C218.329 3.34257 218.87 3.18714 219.482 3.18714C220.094 3.18714 220.635 3.34257 221.102 3.65341C221.573 3.96425 221.941 4.39512 222.206 4.94602C222.47 5.49692 222.603 6.13553 222.603 6.86186C222.603 7.58203 222.47 8.21757 222.206 8.76847C221.941 9.31629 221.573 9.74562 221.102 10.0565C220.635 10.3673 220.094 10.5227 219.482 10.5227ZM219.482 9.77024C219.974 9.77024 220.391 9.6379 220.733 9.37322C221.075 9.10855 221.335 8.75616 221.513 8.31605C221.692 7.87595 221.781 7.39122 221.781 6.86186C221.781 6.3325 221.692 5.84624 221.513 5.40305C221.335 4.95987 221.075 4.6044 220.733 4.33665C220.391 4.06889 219.974 3.93501 219.482 3.93501C218.993 3.93501 218.577 4.06889 218.236 4.33665C217.894 4.6044 217.634 4.95987 217.455 5.40305C217.277 5.84624 217.188 6.3325 217.188 6.86186C217.188 7.39122 217.275 7.87595 217.451 8.31605C217.629 8.75616 217.889 9.10855 218.231 9.37322C218.576 9.6379 218.993 9.77024 219.482 9.77024Z" fill="#18443E"/>
<path d="M224.539 13.0341V3.28409H225.338V4.63672H225.435C225.533 4.42436 225.669 4.20739 225.841 3.9858C226.014 3.76113 226.241 3.57185 226.524 3.41797C226.811 3.26409 227.171 3.18714 227.605 3.18714C228.189 3.18714 228.7 3.34103 229.137 3.64879C229.577 3.95348 229.919 4.38127 230.162 4.93217C230.408 5.47999 230.532 6.11861 230.532 6.84801C230.532 7.58049 230.408 8.22218 230.162 8.77308C229.919 9.32398 229.577 9.75331 229.137 10.0611C228.7 10.3688 228.193 10.5227 227.614 10.5227C227.186 10.5227 226.828 10.4458 226.538 10.2919C226.252 10.138 226.02 9.94874 225.841 9.72408C225.666 9.49633 225.53 9.27474 225.435 9.0593H225.361V13.0341H224.539ZM225.352 6.83416C225.352 7.4066 225.436 7.91442 225.606 8.3576C225.778 8.7977 226.024 9.14394 226.344 9.39631C226.668 9.6456 227.058 9.77024 227.517 9.77024C227.988 9.77024 228.385 9.64098 228.708 9.38246C229.034 9.12086 229.282 8.76847 229.451 8.32528C229.624 7.8821 229.71 7.38506 229.71 6.83416C229.71 6.28942 229.625 5.79853 229.456 5.36151C229.29 4.92448 229.043 4.57824 228.717 4.3228C228.391 4.06428 227.991 3.93501 227.517 3.93501C227.055 3.93501 226.663 4.05966 226.34 4.30895C226.017 4.55516 225.77 4.89678 225.601 5.33381C225.435 5.76776 225.352 6.26787 225.352 6.83416Z" fill="#18443E"/>
<path d="M235.09 10.5227C234.478 10.5227 233.936 10.3673 233.465 10.0565C232.997 9.74562 232.631 9.31629 232.367 8.76847C232.102 8.21757 231.97 7.58203 231.97 6.86186C231.97 6.13553 232.102 5.49692 232.367 4.94602C232.631 4.39205 232.997 3.96117 233.465 3.65341C233.936 3.34257 234.478 3.18714 235.09 3.18714C235.703 3.18714 236.243 3.34257 236.711 3.65341C237.178 3.96425 237.545 4.39512 237.809 4.94602C238.077 5.49692 238.211 6.13553 238.211 6.86186C238.211 7.58203 238.079 8.21757 237.814 8.76847C237.549 9.31629 237.182 9.74562 236.711 10.0565C236.243 10.3673 235.703 10.5227 235.09 10.5227ZM235.09 9.77024C235.583 9.77024 236 9.6379 236.341 9.37322C236.683 9.10855 236.941 8.75616 237.117 8.31605C237.295 7.87595 237.385 7.39122 237.385 6.86186C237.385 6.3325 237.295 5.84624 237.117 5.40305C236.941 4.95987 236.683 4.6044 236.341 4.33665C236 4.06889 235.583 3.93501 235.09 3.93501C234.601 3.93501 234.184 4.06889 233.839 4.33665C233.498 4.6044 233.238 4.95987 233.059 5.40305C232.884 5.84624 232.796 6.3325 232.796 6.86186C232.796 7.39122 232.884 7.87595 233.059 8.31605C233.238 8.75616 233.498 9.10855 233.839 9.37322C234.181 9.6379 234.598 9.77024 235.09 9.77024Z" fill="#18443E"/>
<path d="M31.1566 46.375V19.175H39.9355C41.8657 19.175 43.4772 19.5247 44.7699 20.2242C46.0715 20.9148 47.0498 21.8755 47.705 23.1062C48.3691 24.3281 48.7011 25.7315 48.7011 27.3164C48.7011 28.9013 48.3691 30.3003 47.705 31.5133C47.0498 32.7263 46.0759 33.6737 44.7832 34.3555C43.4905 35.0372 41.8879 35.3781 39.9754 35.3781H32.498V33.107H39.909C41.3256 33.107 42.5032 32.8724 43.4418 32.4031C44.3892 31.9339 45.0931 31.2654 45.5535 30.3977C46.0228 29.5299 46.2574 28.5029 46.2574 27.3164C46.2574 26.1299 46.0228 25.094 45.5535 24.2086C45.0842 23.3143 44.3759 22.6237 43.4285 22.1367C42.4899 21.6497 41.3035 21.4062 39.8691 21.4062H33.6402V46.375H31.1566ZM43.1496 34.1031L49.8433 46.375H46.9746L40.3472 34.1031H43.1496Z" fill="#18443E"/>
<path d="M53.1039 21.4062V19.175H72.8265V21.4062H64.207V46.375H61.7234V21.4062H53.1039Z" fill="#18443E"/>
<path d="M75.2802 46.375H72.6771L82.5716 19.175H85.2279L95.1224 46.375H92.5193L83.9927 22.4023H83.8068L75.2802 46.375ZM77.1529 35.9492H90.6467V38.1805H77.1529V35.9492Z" fill="#18443E"/>
<path d="M99.7841 19.175H102.653L112.521 42.8688H112.76L122.628 19.175H125.497V46.375H123.159V24.4211H122.947L113.769 46.375H111.511L102.334 24.4211H102.122V46.375H99.7841V19.175Z" fill="#18443E"/>
<path d="M155.028 32.775C155.028 35.6083 154.523 38.0742 153.513 40.1727C152.504 42.2622 151.114 43.8825 149.343 45.0336C147.581 46.1758 145.554 46.7469 143.26 46.7469C140.967 46.7469 138.935 46.1758 137.164 45.0336C135.402 43.8825 134.017 42.2622 133.007 40.1727C132.007 38.0742 131.506 35.6083 131.506 32.775C131.506 29.9417 132.007 27.4802 133.007 25.3906C134.017 23.2922 135.407 21.6719 137.178 20.5297C138.948 19.3786 140.976 18.8031 143.26 18.8031C145.554 18.8031 147.581 19.3786 149.343 20.5297C151.114 21.6719 152.504 23.2922 153.513 25.3906C154.523 27.4802 155.028 29.9417 155.028 32.775ZM152.61 32.775C152.61 30.3401 152.203 28.2549 151.388 26.5195C150.574 24.7753 149.463 23.4427 148.055 22.5219C146.647 21.601 145.049 21.1406 143.26 21.1406C141.481 21.1406 139.887 21.601 138.479 22.5219C137.071 23.4427 135.956 24.7708 135.132 26.5062C134.318 28.2417 133.91 30.3312 133.91 32.775C133.91 35.2099 134.318 37.2951 135.132 39.0305C135.947 40.7659 137.058 42.0984 138.466 43.0281C139.874 43.949 141.472 44.4094 143.26 44.4094C145.049 44.4094 146.647 43.949 148.055 43.0281C149.472 42.1073 150.587 40.7792 151.402 39.0438C152.216 37.2995 152.619 35.2099 152.61 32.775Z" fill="#18443E"/>
<path d="M182.218 19.175V46.375H179.8L163.73 23.5977H163.518V46.375H161.034V19.175H163.438L179.561 41.9789H179.774V19.175H182.218Z" fill="#18443E"/>
<path d="M211.748 32.775C211.748 35.6083 211.244 38.0742 210.234 40.1727C209.225 42.2622 207.835 43.8825 206.064 45.0336C204.302 46.1758 202.274 46.7469 199.981 46.7469C197.688 46.7469 195.656 46.1758 193.885 45.0336C192.123 43.8825 190.737 42.2622 189.728 40.1727C188.728 38.0742 188.227 35.6083 188.227 32.775C188.227 29.9417 188.728 27.4802 189.728 25.3906C190.737 23.2922 192.128 21.6719 193.898 20.5297C195.669 19.3786 197.697 18.8031 199.981 18.8031C202.274 18.8031 204.302 19.3786 206.064 20.5297C207.835 21.6719 209.225 23.2922 210.234 25.3906C211.244 27.4802 211.748 29.9417 211.748 32.775ZM209.331 32.775C209.331 30.3401 208.924 28.2549 208.109 26.5195C207.295 24.7753 206.184 23.4427 204.776 22.5219C203.368 21.601 201.77 21.1406 199.981 21.1406C198.202 21.1406 196.608 21.601 195.2 22.5219C193.792 23.4427 192.677 24.7708 191.853 26.5062C191.039 28.2417 190.631 30.3312 190.631 32.775C190.631 35.2099 191.039 37.2951 191.853 39.0305C192.668 40.7659 193.779 42.0984 195.187 43.0281C196.594 43.949 198.193 44.4094 199.981 44.4094C201.77 44.4094 203.368 43.949 204.776 43.0281C206.192 42.1073 207.308 40.7792 208.123 39.0438C208.937 37.2995 209.34 35.2099 209.331 32.775Z" fill="#18443E"/>
<path d="M216.516 19.175L225.016 43.1477H225.255L233.755 19.175H236.359L226.464 46.375H223.808L213.913 19.175H216.516Z" fill="#18443E"/>
<path d="M19.5402 33.0475H11V35.375H20.138L19.5402 33.0475Z" fill="#18443E"/>
<path d="M23.1199 47.375L11.663 2.375L0 47.3695L2.45568 47.375L11.6571 11.9394L20.9828 47.3746L23.1199 47.375Z" fill="#18443E"/>
</svg>
