<svg width="24" height="24" viewBox="0 0 24 24" fill="none" xmlns="http://www.w3.org/2000/svg">
<path fill-rule="evenodd" clip-rule="evenodd" d="M4.58509 6H2.2877C1.63129 6 1.5 6.29735 1.5 6.62514C1.5 7.21067 2.27888 10.1146 5.12657 13.9553C7.02503 16.5782 9.69977 18 12.1337 18C13.5941 18 13.7748 17.6842 13.7748 17.1403V15.1579C13.7748 14.5263 13.9131 14.4003 14.3755 14.4003C14.7163 14.4003 15.3004 14.5642 16.6634 15.8288C18.2212 17.3276 18.478 18 19.3541 18H21.6515C22.308 18 22.6362 17.6842 22.4468 17.061C22.2397 16.4399 21.4959 15.5387 20.5091 14.4705C19.9736 13.8616 19.1704 13.2059 18.927 12.878C18.5862 12.4565 18.6836 12.2691 18.927 11.8945C18.927 11.8945 21.726 8.10057 22.0181 6.81259C22.1641 6.34415 22.0181 6 21.3233 6H19.0259C18.4418 6 18.1725 6.29735 18.0264 6.62514C18.0264 6.62514 16.8581 9.36518 15.2031 11.145C14.6676 11.6602 14.4242 11.8242 14.1321 11.8242C13.9861 11.8242 13.7747 11.6602 13.7747 11.1919V6.81259C13.7747 6.25048 13.6052 6 13.1183 6H9.50808C9.14308 6 8.92349 6.26084 8.92349 6.50811C8.92349 7.0409 9.75103 7.16381 9.83634 8.66261V11.9179C9.83634 12.6316 9.70233 12.761 9.4103 12.761C8.63146 12.761 6.73694 10.0087 5.61331 6.85939C5.39314 6.24726 5.17224 6 4.58509 6Z" fill="#18443E"/>
</svg>
