<svg width="24" height="24" viewBox="0 0 24 24" fill="none" xmlns="http://www.w3.org/2000/svg">
<path fill-rule="evenodd" clip-rule="evenodd" d="M5.46221 18.144L5.62475 17.25L5.1209 16.4939C4.24987 15.1867 3.74219 13.6186 3.74219 11.9251C3.74219 7.36722 7.43705 3.67236 11.9949 3.67236C16.5527 3.67236 20.2476 7.36722 20.2476 11.9251C20.2476 16.4829 16.5527 20.1778 11.9949 20.1778C10.896 20.1778 9.85247 19.9642 8.89961 19.5783L8.19573 19.2933L7.46309 19.4931L5.09973 20.1376L5.46221 18.144ZM1.49219 11.9251C1.49219 14.0762 2.1389 16.0763 3.2485 17.7415L2.46026 22.0769C2.36155 22.6198 2.86314 23.0798 3.39549 22.9346L8.0551 21.6638C9.2717 22.1565 10.6016 22.4278 11.9949 22.4278C17.7954 22.4278 22.4976 17.7255 22.4976 11.9251C22.4976 6.12458 17.7954 1.42236 11.9949 1.42236C6.19441 1.42236 1.49219 6.12458 1.49219 11.9251ZM10.3068 9.26013C10.1304 8.21518 9.38931 6.71192 9.19522 6.67526C7.54849 6.36418 6.39043 8.03943 6.7426 9.65981C7.11314 11.3647 7.9786 12.9963 9.65485 14.5912C11.3311 16.1862 13.1854 17.1404 14.597 17.1404C16.0085 17.1404 17.5112 16.2312 17.1186 14.4897C16.8539 14.2698 15.4953 13.363 14.9836 13.2713C14.5374 13.1914 14.2522 13.5853 14.0111 13.9184C13.9756 13.9673 13.9411 14.015 13.9072 14.0596C13.6426 14.4079 13.4308 14.5912 13.2014 14.5912C12.9721 14.5912 12.0545 14.2246 10.9782 13.1613C9.90188 12.098 9.32238 11.2949 9.53134 10.8881C9.57525 10.8026 9.65909 10.6949 9.75625 10.5702C10.0231 10.2275 10.3905 9.75576 10.3068 9.26013Z" fill="#F6F4F2"/>
</svg>
