<svg width="24" height="24" viewBox="0 0 24 24" fill="none" xmlns="http://www.w3.org/2000/svg">
<path fill-rule="evenodd" clip-rule="evenodd" d="M5.47002 18.1435L5.63257 17.2495L5.12871 16.4934C4.25768 15.1862 3.75 13.6181 3.75 11.9246C3.75 7.36674 7.44486 3.67187 12.0027 3.67187C16.5605 3.67187 20.2554 7.36674 20.2554 11.9246C20.2554 16.4824 16.5605 20.1773 12.0027 20.1773C10.9038 20.1773 9.86028 19.9637 8.90742 19.5778L8.20354 19.2928L7.4709 19.4926L5.10754 20.1372L5.47002 18.1435ZM1.5 11.9246C1.5 14.0757 2.14671 16.0758 3.25632 17.741L2.46807 22.0764C2.36936 22.6193 2.87095 23.0793 3.40331 22.9341L8.06291 21.6633C9.27951 22.156 10.6094 22.4273 12.0027 22.4273C17.8032 22.4273 22.5054 17.7251 22.5054 11.9246C22.5054 6.1241 17.8032 1.42188 12.0027 1.42188C6.20222 1.42188 1.5 6.1241 1.5 11.9246ZM10.3146 9.25964C10.1382 8.21469 9.39712 6.71143 9.20303 6.67477C7.5563 6.36369 6.39825 8.03894 6.75041 9.65932C7.12095 11.3642 7.98642 12.9958 9.66266 14.5907C11.3389 16.1857 13.1932 17.1399 14.6048 17.1399C16.0164 17.1399 17.519 16.2308 17.1264 14.4893C16.8617 14.2693 15.5031 13.3625 14.9914 13.2708C14.5452 13.1909 14.2601 13.5848 14.0189 13.9179C13.9834 13.9668 13.949 14.0145 13.915 14.0591C13.6504 14.4074 13.4386 14.5907 13.2093 14.5907C12.9799 14.5907 12.0623 14.2241 10.986 13.1608C9.90969 12.0975 9.33019 11.2944 9.53915 10.8876C9.58306 10.8021 9.6669 10.6945 9.76406 10.5697C10.031 10.227 10.3983 9.75527 10.3146 9.25964Z" fill="#18443E"/>
</svg>
