<svg width="40" height="40" viewBox="0 0 40 40" fill="none" xmlns="http://www.w3.org/2000/svg">
<path d="M13.6667 5V11.1333M25.9334 5V11.1333M6 17.2667H33.6M33.6 28V11.1333C33.6 10.32 33.2769 9.53999 32.7018 8.96488C32.1267 8.38977 31.3467 8.06667 30.5334 8.06667H9.06667C8.25334 8.06667 7.47332 8.38977 6.89821 8.96488C6.32309 9.53999 6 10.32 6 11.1333V32.6C6 33.4134 6.32309 34.1934 6.89821 34.7685C7.47332 35.3436 8.25334 35.6667 9.06667 35.6667H25.9334L33.6 28Z" stroke="#212121" stroke-width="1.5" stroke-linecap="round" stroke-linejoin="round"/>
<path d="M24.3984 35.6668V29.5335C24.3984 28.7201 24.7215 27.9401 25.2966 27.365C25.8718 26.7899 26.6518 26.4668 27.4651 26.4668H33.5985" stroke="#212121" stroke-width="1.5" stroke-linecap="round" stroke-linejoin="round"/>
</svg>
