<svg width="40" height="40" viewBox="0 0 40 40" fill="none" xmlns="http://www.w3.org/2000/svg">
<path d="M35.405 33.1765H31.5895V7.05453C31.5895 6.50964 31.373 5.98706 30.9877 5.60176C30.6024 5.21646 30.0798 5 29.5349 5H10.7506C10.2057 5 9.68314 5.21646 9.29784 5.60176C8.91254 5.98706 8.69608 6.50964 8.69608 7.05453V33.1765H4.88051C4.64699 33.1765 4.42303 33.2692 4.2579 33.4344C4.09277 33.5995 4 33.8235 4 34.057C4 34.2905 4.09277 34.5145 4.2579 34.6796C4.42303 34.8447 4.64699 34.9375 4.88051 34.9375H35.405C35.6385 34.9375 35.8625 34.8447 36.0276 34.6796C36.1928 34.5145 36.2855 34.2905 36.2855 34.057C36.2855 33.8235 36.1928 33.5995 36.0276 33.4344C35.8625 33.2692 35.6385 33.1765 35.405 33.1765ZM29.8284 7.05453V33.1765H26.8934V6.76103H29.5349C29.6128 6.76103 29.6874 6.79195 29.7425 6.84699C29.7975 6.90204 29.8284 6.97669 29.8284 7.05453ZM10.4571 7.05453C10.4571 6.97669 10.488 6.90204 10.5431 6.84699C10.5981 6.79195 10.6728 6.76103 10.7506 6.76103H25.1324V33.1765H10.4571V7.05453ZM22.1973 20.5558C22.1973 20.846 22.1112 21.1297 21.95 21.3711C21.7887 21.6124 21.5595 21.8005 21.2914 21.9116C21.0232 22.0226 20.7282 22.0517 20.4435 21.9951C20.1588 21.9385 19.8973 21.7987 19.6921 21.5935C19.4868 21.3882 19.3471 21.1267 19.2905 20.8421C19.2338 20.5574 19.2629 20.2623 19.374 19.9942C19.485 19.726 19.6731 19.4968 19.9145 19.3356C20.1558 19.1743 20.4395 19.0882 20.7298 19.0882C21.119 19.0882 21.4923 19.2428 21.7675 19.5181C22.0427 19.7933 22.1973 20.1665 22.1973 20.5558Z" fill="#212121"/>
</svg>
