<svg width="40" height="40" viewBox="0 0 40 40" fill="none" xmlns="http://www.w3.org/2000/svg">
<path d="M35.6094 22.5375C35.2188 22.2368 34.7639 22.0305 34.2803 21.9348C33.7967 21.8391 33.2976 21.8566 32.8219 21.9859L25.1172 23.75C25.4499 23.1811 25.6251 22.534 25.625 21.875C25.625 20.8804 25.2299 19.9266 24.5267 19.2233C23.8234 18.5201 22.8696 18.125 21.875 18.125H14.0531C13.4783 18.1232 12.9089 18.2356 12.3778 18.4555C11.8468 18.6755 11.3646 18.9986 10.9594 19.4062L7.24062 23.125H2.5C2.00272 23.125 1.52581 23.3225 1.17417 23.6742C0.822544 24.0258 0.625 24.5027 0.625 25V31.25C0.625 31.7473 0.822544 32.2242 1.17417 32.5758C1.52581 32.9275 2.00272 33.125 2.5 33.125H18.75C18.8027 33.1254 18.8552 33.1191 18.9062 33.1063L28.9062 30.6063C28.9381 30.5978 28.9694 30.5874 29 30.575L35.0656 27.9906L35.1 27.975C35.5887 27.7307 36.0072 27.3661 36.316 26.9154C36.6249 26.4647 36.8139 25.9428 36.8653 25.3988C36.9168 24.8549 36.8289 24.3068 36.61 23.8063C36.3911 23.3057 36.0483 22.869 35.6141 22.5375H35.6094ZM1.875 31.25V25C1.875 24.8342 1.94085 24.6753 2.05806 24.5581C2.17527 24.4408 2.33424 24.375 2.5 24.375H6.875V31.875H2.5C2.33424 31.875 2.17527 31.8092 2.05806 31.6919C1.94085 31.5747 1.875 31.4158 1.875 31.25ZM34.5516 26.8484L28.55 29.4062L18.6734 31.875H8.125V24.0094L11.8438 20.2906C12.1331 19.9994 12.4774 19.7686 12.8567 19.6114C13.2359 19.4542 13.6426 19.3739 14.0531 19.375H21.875C22.538 19.375 23.1739 19.6384 23.6428 20.1072C24.1116 20.5761 24.375 21.212 24.375 21.875C24.375 22.538 24.1116 23.1739 23.6428 23.6428C23.1739 24.1116 22.538 24.375 21.875 24.375H17.5C17.3342 24.375 17.1753 24.4408 17.0581 24.5581C16.9408 24.6753 16.875 24.8342 16.875 25C16.875 25.1658 16.9408 25.3247 17.0581 25.4419C17.1753 25.5592 17.3342 25.625 17.5 25.625H22.5C22.5473 25.6251 22.5945 25.6199 22.6406 25.6094L33.1094 23.2016H33.1344C33.6035 23.0772 34.102 23.1304 34.5342 23.3511C34.9664 23.5718 35.3019 23.9444 35.4763 24.3973C35.6506 24.8502 35.6515 25.3515 35.4789 25.8051C35.3062 26.2586 34.972 26.6324 34.5406 26.8547L34.5516 26.8484ZM25.625 14.375C26.0862 14.3757 26.5452 14.3126 26.9891 14.1875C27.2017 15.1668 27.7038 16.0596 28.4301 16.7501C29.1564 17.4406 30.0735 17.8969 31.0623 18.0598C32.0511 18.2228 33.066 18.0848 33.9755 17.6638C34.8849 17.2429 35.6469 16.5583 36.1625 15.699C36.6782 14.8397 36.9237 13.8453 36.8672 12.8447C36.8108 11.8441 36.455 10.8836 35.8459 10.0878C35.2369 9.29192 34.4028 8.69743 33.4518 8.38143C32.5007 8.06544 31.4767 8.04251 30.5125 8.31563C30.3126 7.39359 29.8559 6.54693 29.1952 5.87346C28.5345 5.19998 27.6967 4.72718 26.7787 4.50968C25.8607 4.29218 24.8998 4.33886 24.0072 4.64431C23.1146 4.94977 22.3266 5.50154 21.7342 6.23589C21.1419 6.97023 20.7694 7.85717 20.6599 8.79423C20.5503 9.7313 20.708 10.6802 21.1149 11.5314C21.5218 12.3826 22.1613 13.1013 22.9593 13.6045C23.7574 14.1077 24.6815 14.3748 25.625 14.375ZM35.625 13.125C35.625 13.8667 35.4051 14.5917 34.993 15.2084C34.581 15.8251 33.9953 16.3057 33.3101 16.5895C32.6248 16.8734 31.8708 16.9476 31.1434 16.8029C30.416 16.6583 29.7478 16.3011 29.2233 15.7767C28.6989 15.2522 28.3417 14.584 28.1971 13.8566C28.0524 13.1292 28.1266 12.3752 28.4105 11.6899C28.6943 11.0047 29.1749 10.419 29.7916 10.007C30.4083 9.59493 31.1333 9.375 31.875 9.375C32.8696 9.375 33.8234 9.77009 34.5266 10.4733C35.2299 11.1766 35.625 12.1304 35.625 13.125ZM25.625 5.625C26.5238 5.62491 27.3927 5.94763 28.0735 6.53439C28.7544 7.12115 29.2018 7.93292 29.3344 8.82188C28.6164 9.24437 28.0153 9.83958 27.5858 10.5534C27.1563 11.2673 26.912 12.0771 26.875 12.9094C26.36 13.092 25.8113 13.1599 25.2674 13.1082C24.7234 13.0566 24.1973 12.8867 23.7258 12.6104C23.2544 12.3342 22.849 11.9582 22.5381 11.5089C22.2272 11.0596 22.0182 10.5478 21.9258 10.0092C21.8333 9.47069 21.8597 8.91845 22.0031 8.39118C22.1464 7.86391 22.4033 7.37433 22.7557 6.95671C23.108 6.5391 23.5474 6.20353 24.043 5.9735C24.5387 5.74346 25.0786 5.62452 25.625 5.625Z" fill="#212121"/>
</svg>
