<svg width="40" height="40" viewBox="0 0 40 40" fill="none" xmlns="http://www.w3.org/2000/svg">
<path d="M26.6641 8.33308L31.6641 13.3331L28.3307 14.9997L34.9974 21.6664L29.9974 23.3331L36.6641 29.9997H21.6641M24.9974 34.9997V29.9997M13.3307 21.6664L9.99739 18.3331M13.3307 19.9997L16.6641 16.6664M13.3307 34.9997V13.3331M9.70406 26.6664C8.97484 26.6237 8.26384 26.4218 7.62106 26.0748C6.97829 25.7277 6.41935 25.2441 5.98357 24.6579C5.54778 24.0717 5.24574 23.3971 5.09869 22.6815C4.95163 21.966 4.96314 21.227 5.13239 20.5164C4.52818 20.0132 4.05115 19.3747 3.74005 18.6525C3.42894 17.9304 3.29253 17.1451 3.34189 16.3604C3.39125 15.5756 3.625 14.8136 4.02413 14.1361C4.42327 13.4587 4.97656 12.8849 5.63906 12.4614C5.05801 11.4292 4.86231 10.2242 5.08683 9.0611C5.31134 7.89803 5.94149 6.85244 6.865 6.11063C7.78851 5.36883 8.94538 4.97899 10.1295 5.01057C11.3136 5.04215 12.4481 5.4931 13.3307 6.28308C14.2136 5.49435 15.3477 5.04447 16.5311 5.0135C17.7146 4.98253 18.8706 5.37249 19.7935 6.11396C20.7164 6.85544 21.3463 7.90033 21.571 9.06267C21.7957 10.225 21.6007 11.4294 21.0207 12.4614C21.6833 12.8848 22.2368 13.4584 22.6361 14.1358C23.0353 14.8132 23.2692 15.5752 23.3188 16.3599C23.3683 17.1447 23.232 17.93 22.9211 18.6522C22.6101 19.3744 22.1332 20.0131 21.5291 20.5164C21.704 21.2511 21.7103 22.0158 21.5474 22.7532C21.3845 23.4907 21.0567 24.1816 20.5885 24.7742C20.1204 25.3668 19.5241 25.8457 18.8444 26.1748C18.1647 26.504 17.4193 26.6749 16.6641 26.6747H9.99739L9.70406 26.6664Z" stroke="#212121" stroke-width="1.5" stroke-linecap="round" stroke-linejoin="round"/>
</svg>
