<svg width="40" height="40" viewBox="0 0 40 40" fill="none" xmlns="http://www.w3.org/2000/svg">
<path d="M34.1654 21.6206V26.3428C34.1654 28.0127 33.502 29.6142 32.3212 30.795C31.1404 31.9758 29.539 32.6391 27.8691 32.6391H12.1283C10.4584 32.6391 8.85696 31.9758 7.67617 30.795C6.49539 29.6142 5.83203 28.0127 5.83203 26.3428V22.5651C5.83203 22.3146 5.93153 22.0744 6.10865 21.8972C6.28577 21.7201 6.52599 21.6206 6.77648 21.6206H34.1654ZM34.1654 21.6206V12.1762C34.1654 10.5063 33.502 8.90481 32.3212 7.72403C31.1404 6.54324 29.539 5.87988 27.8691 5.87988H19.9987M26.295 32.6391L27.8691 35.7873M13.7024 32.6391L12.1283 35.7873" stroke="#212121" stroke-width="1.5" stroke-linecap="round" stroke-linejoin="round"/>
<path d="M23.5732 11.1404H16.4242C16.0762 11.1404 15.7976 10.8586 15.8355 10.5117C15.989 9.11659 16.7007 5.88379 19.9987 5.88379C23.2967 5.88379 24.0084 9.11659 24.1619 10.5117C24.1998 10.8586 23.9212 11.1404 23.5732 11.1404Z" stroke="#212121" stroke-width="1.5" stroke-linecap="round" stroke-linejoin="round"/>
</svg>
