<svg width="40" height="40" viewBox="0 0 40 40" fill="none" xmlns="http://www.w3.org/2000/svg">
<path d="M3.75 32.5V23.75C3.75392 22.4251 4.28196 21.1556 5.21879 20.2188C6.15563 19.282 7.42512 18.7539 8.75 18.75H31.25C32.5749 18.7539 33.8444 19.282 34.7812 20.2188C35.718 21.1556 36.2461 22.4251 36.25 23.75V32.5M30 18.75H7.5V10.625C7.50247 9.79696 7.83251 9.00354 8.41802 8.41802C9.00354 7.83251 9.79696 7.50247 10.625 7.5H29.375C30.203 7.50247 30.9965 7.83251 31.582 8.41802C32.1675 9.00354 32.4975 9.79696 32.5 10.625V18.75H30Z" stroke="#212121" stroke-width="1.5" stroke-linecap="round" stroke-linejoin="round"/>
<path d="M3.75 32.5V31.875C3.75144 31.3782 3.94945 30.9021 4.30077 30.5508C4.65209 30.1994 5.12816 30.0014 5.625 30H34.375C34.8718 30.0014 35.3479 30.1994 35.6992 30.5508C36.0506 30.9021 36.2486 31.3782 36.25 31.875V32.5M8.75 18.75V17.5C8.75186 16.8375 9.01584 16.2027 9.48428 15.7343C9.95272 15.2658 10.5875 15.0019 11.25 15H17.5C18.1625 15.0019 18.7973 15.2658 19.2657 15.7343C19.7342 16.2027 19.9981 16.8375 20 17.5M20 17.5V18.75M20 17.5C20.0019 16.8375 20.2658 16.2027 20.7343 15.7343C21.2027 15.2658 21.8375 15.0019 22.5 15H28.75C29.4125 15.0019 30.0473 15.2658 30.5157 15.7343C30.9842 16.2027 31.2481 16.8375 31.25 17.5V18.75" stroke="#212121" stroke-width="1.5" stroke-linecap="round" stroke-linejoin="round"/>
</svg>
