<svg width="40" height="40" viewBox="0 0 40 40" fill="none" xmlns="http://www.w3.org/2000/svg">
<path d="M24.5648 33.3335V21.4034C24.5648 21.0079 24.4077 20.6286 24.128 20.3489C23.8484 20.0692 23.469 19.9121 23.0735 19.9121H17.1085C16.7129 19.9121 16.3336 20.0692 16.054 20.3489C15.7743 20.6286 15.6172 21.0079 15.6172 21.4034V33.3335" stroke="#212121" stroke-width="1.5" stroke-linecap="round" stroke-linejoin="round"/>
<path d="M6.66797 16.9294C6.66786 16.4955 6.76242 16.0669 6.94503 15.6733C7.12764 15.2797 7.39392 14.9308 7.72528 14.6507L18.1642 5.70459C18.7025 5.24962 19.3846 5 20.0894 5C20.7942 5 21.4763 5.24962 22.0146 5.70459L32.4535 14.6507C32.7849 14.9308 33.0511 15.2797 33.2338 15.6733C33.4164 16.0669 33.5109 16.4955 33.5108 16.9294V30.3508C33.5108 31.1418 33.1966 31.9004 32.6372 32.4598C32.0779 33.0191 31.3193 33.3333 30.5283 33.3333H9.65051C8.85949 33.3333 8.10087 33.0191 7.54153 32.4598C6.9822 31.9004 6.66797 31.1418 6.66797 30.3508V16.9294Z" stroke="#212121" stroke-width="1.5" stroke-linecap="round" stroke-linejoin="round"/>
</svg>
